<?xml version="1.0" encoding="iso-8859-1"?>
<!-- Generator: Adobe Illustrator 19.0.0, SVG Export Plug-In . SVG Version: 6.00 Build 0)  -->
<svg version="1.1" id="Capa_1" xmlns="http://www.w3.org/2000/svg" xmlns:xlink="http://www.w3.org/1999/xlink" x="0px" y="0px"
	 viewBox="0 0 288.52 288.52" style="enable-background:new 0 0 288.52 288.52;" xml:space="preserve">
<g>
	<g>
		<path d="M266.02,19.745H22.5c-12.406,0-22.5,10.094-22.5,22.5v170.307c0,12.406,10.094,22.5,22.5,22.5h113.26v16.722h-29.769v17
			h76.537v-17H152.76v-16.722h113.26c12.406,0,22.5-10.094,22.5-22.5V42.245C288.52,29.838,278.426,19.745,266.02,19.745z
			 M22.5,36.745h243.52c3.033,0,5.5,2.467,5.5,5.5v135.528H17V42.245C17,39.211,19.467,36.745,22.5,36.745z M266.02,218.051H22.5
			c-3.033,0-5.5-2.467-5.5-5.5v-17.778h254.52v17.778C271.52,215.584,269.053,218.051,266.02,218.051z"/>
	</g>
	<g>
	</g>
	<g>
	</g>
	<g>
	</g>
	<g>
	</g>
	<g>
	</g>
	<g>
	</g>
	<g>
	</g>
	<g>
	</g>
	<g>
	</g>
	<g>
	</g>
	<g>
	</g>
	<g>
	</g>
	<g>
	</g>
	<g>
	</g>
	<g>
	</g>
</g>
<g>
</g>
<g>
</g>
<g>
</g>
<g>
</g>
<g>
</g>
<g>
</g>
<g>
</g>
<g>
</g>
<g>
</g>
<g>
</g>
<g>
</g>
<g>
</g>
<g>
</g>
<g>
</g>
<g>
</g>
</svg>
