<?xml version="1.0" encoding="iso-8859-1"?>
<!-- Generator: Adobe Illustrator 19.0.0, SVG Export Plug-In . SVG Version: 6.00 Build 0)  -->
<svg version="1.1" id="Capa_1" xmlns="http://www.w3.org/2000/svg" xmlns:xlink="http://www.w3.org/1999/xlink" x="0px" y="0px"
	 viewBox="0 0 288.53 288.53" style="enable-background:new 0 0 288.53 288.53;" xml:space="preserve">
<g>
	<g>
		<path d="M191.002,129.427c-2.68-23.419-22.612-41.672-46.737-41.672c-24.212,0-44.206,18.385-46.769,41.927l17.394,11.464
			c-0.441-2.044-0.678-4.163-0.678-6.337c0-16.571,13.482-30.054,30.054-30.054c16.571,0,30.054,13.482,30.054,30.054
			c0,2.102-0.219,4.153-0.631,6.134C179.07,137.364,184.916,133.476,191.002,129.427z"/>
		<path d="M143.566,57.865c-34.37,0-63.543,22.655-73.385,53.813l14.943,9.849c6.061-26.68,29.954-46.662,58.442-46.662
			c28.666,0,52.684,20.231,58.558,47.162c4.968-3.306,9.99-6.649,14.954-9.955C207.359,80.71,178.081,57.865,143.566,57.865z"/>
		<path d="M144.266,26.238c-45.499,0-84.544,28.136-100.667,67.92l14.529,9.576c12.753-35.242,46.55-60.496,86.138-60.496
			c39.426,0,73.111,25.045,85.983,60.061c5.062-3.373,9.931-6.62,14.475-9.652C228.474,54.134,189.57,26.238,144.266,26.238z"/>
		<rect x="218.705" y="202.023" width="17" height="20.822"/>
		<rect x="249.243" y="202.023" width="17" height="20.822"/>
		<path d="M280.031,171.935h-263c-0.011,0-0.021,0.002-0.031,0.002V118.7c0-4.694-3.806-8.5-8.5-8.5S0,114.006,0,118.7v99.649
			c0,4.694,3.806,8.5,8.5,8.5c0.011,0,0.021-0.002,0.031-0.002v17.587c0,4.694,3.806,8.5,8.5,8.5h0.597v9.358h6.483h10.517h6.483
			v-9.358h213.61v9.358h6.483h10.517h6.483v-9.358h1.826c4.694,0,8.5-3.806,8.5-8.5v-64
			C288.531,175.74,284.726,171.935,280.031,171.935z M25.531,188.935h246v47h-246C25.531,235.935,25.531,188.935,25.531,188.935z"/>
	</g>
	<g>
	</g>
	<g>
	</g>
	<g>
	</g>
	<g>
	</g>
	<g>
	</g>
	<g>
	</g>
	<g>
	</g>
	<g>
	</g>
	<g>
	</g>
	<g>
	</g>
	<g>
	</g>
	<g>
	</g>
	<g>
	</g>
	<g>
	</g>
	<g>
	</g>
</g>
<g>
</g>
<g>
</g>
<g>
</g>
<g>
</g>
<g>
</g>
<g>
</g>
<g>
</g>
<g>
</g>
<g>
</g>
<g>
</g>
<g>
</g>
<g>
</g>
<g>
</g>
<g>
</g>
<g>
</g>
</svg>
