<?xml version="1.0" encoding="iso-8859-1"?>
<!-- Generator: Adobe Illustrator 19.0.0, SVG Export Plug-In . SVG Version: 6.00 Build 0)  -->
<svg version="1.1" id="Capa_1" xmlns="http://www.w3.org/2000/svg" xmlns:xlink="http://www.w3.org/1999/xlink" x="0px" y="0px"
	 viewBox="0 0 379.051 379.051" style="enable-background:new 0 0 379.051 379.051;" xml:space="preserve">
<g>
	<g>
		<path d="M370.551,119.931c-4.694,0-8.5,3.806-8.5,8.5v15.246h-30.352c0.005-0.126,0.019-0.25,0.019-0.378l0.006-60.557
			l-7.188-1.124c-1.48-0.231-36.506-5.67-57.973-5.67c-21.488,0-55.386,5.446-56.818,5.678l-7.141,1.156l-0.001,7.234
			c-0.004,52.478-0.003,53.585-0.003,53.661h-26.173c0.005-0.126,0.019-0.251,0.019-0.378l0.005-60.556l-7.188-1.124
			c-1.48-0.231-36.506-5.67-57.972-5.67c-21.488,0-55.387,5.446-56.818,5.678l-7.142,1.155l-0.001,7.235
			c-0.004,52.478-0.003,53.585-0.003,53.661H17v-15.246c0-4.694-3.806-8.5-8.5-8.5s-8.5,3.806-8.5,8.5v166.171
			c0,4.694,3.806,8.5,8.5,8.5s8.5-3.806,8.5-8.5v-12.529h345.051v12.529c0,4.694,3.806,8.5,8.5,8.5s8.5-3.806,8.5-8.5V128.431
			C379.051,123.737,375.245,119.931,370.551,119.931z M219.603,97.332c11.042-1.591,32.487-4.383,46.961-4.383
			c14.563,0,36.815,2.829,48.158,4.417l-0.004,45.933c0,0.128,0.014,0.253,0.019,0.38h-95.141c0-0.033,0.005-0.064,0.005-0.097
			C219.6,143.073,219.602,111.874,219.603,97.332z M64.33,97.332c11.046-1.591,32.502-4.384,46.962-4.384
			c14.562,0,36.814,2.829,48.157,4.417l-0.003,45.933c0,0.128,0.014,0.253,0.019,0.379H64.323c0-0.033,0.005-0.064,0.005-0.097
			C64.327,143.073,64.329,111.875,64.33,97.332z M362.051,160.677v76.348H17v-76.348H362.051z M17,265.073v-11.048h345.051v11.048
			H17z"/>
	</g>
	<g>
	</g>
	<g>
	</g>
	<g>
	</g>
	<g>
	</g>
	<g>
	</g>
	<g>
	</g>
	<g>
	</g>
	<g>
	</g>
	<g>
	</g>
	<g>
	</g>
	<g>
	</g>
	<g>
	</g>
	<g>
	</g>
	<g>
	</g>
	<g>
	</g>
</g>
<g>
</g>
<g>
</g>
<g>
</g>
<g>
</g>
<g>
</g>
<g>
</g>
<g>
</g>
<g>
</g>
<g>
</g>
<g>
</g>
<g>
</g>
<g>
</g>
<g>
</g>
<g>
</g>
<g>
</g>
</svg>
