<?xml version="1.0" encoding="iso-8859-1"?>
<!-- Generator: Adobe Illustrator 19.0.0, SVG Export Plug-In . SVG Version: 6.00 Build 0)  -->
<svg version="1.1" id="Capa_1" xmlns="http://www.w3.org/2000/svg" xmlns:xlink="http://www.w3.org/1999/xlink" x="0px" y="0px"
	 viewBox="0 0 284.582 284.582" style="enable-background:new 0 0 284.582 284.582;" xml:space="preserve">
<g>
	<g>
		<rect x="193.309" y="26.979" width="17" height="20.821"/>
		<rect x="223.846" y="26.979" width="17" height="20.821"/>
		<path d="M263.291,0h-242c-4.694,0-8.5,3.806-8.5,8.5v267.582c0,4.694,3.806,8.5,8.5,8.5h242c4.694,0,8.5-3.806,8.5-8.5V8.5
			C271.791,3.806,267.985,0,263.291,0z M254.791,17v42.074h-225V17H254.791z M29.791,267.582V76.074h225v191.508H29.791z"/>
		<rect x="42.906" y="28.891" width="60.862" height="17"/>
		<path d="M142.291,114.349c-35.098,0-63.651,28.554-63.651,63.651s28.554,63.651,63.651,63.651s63.651-28.554,63.651-63.651
			S177.389,114.349,142.291,114.349z M142.291,224.651c-25.724,0-46.651-20.928-46.651-46.651s20.928-46.651,46.651-46.651
			s46.651,20.928,46.651,46.651S168.015,224.651,142.291,224.651z"/>
	</g>
	<g>
	</g>
	<g>
	</g>
	<g>
	</g>
	<g>
	</g>
	<g>
	</g>
	<g>
	</g>
	<g>
	</g>
	<g>
	</g>
	<g>
	</g>
	<g>
	</g>
	<g>
	</g>
	<g>
	</g>
	<g>
	</g>
	<g>
	</g>
	<g>
	</g>
</g>
<g>
</g>
<g>
</g>
<g>
</g>
<g>
</g>
<g>
</g>
<g>
</g>
<g>
</g>
<g>
</g>
<g>
</g>
<g>
</g>
<g>
</g>
<g>
</g>
<g>
</g>
<g>
</g>
<g>
</g>
</svg>
