<?xml version="1.0" encoding="iso-8859-1"?>
<!-- Generator: Adobe Illustrator 19.0.0, SVG Export Plug-In . SVG Version: 6.00 Build 0)  -->
<svg version="1.1" id="Capa_1" xmlns="http://www.w3.org/2000/svg" xmlns:xlink="http://www.w3.org/1999/xlink" x="0px" y="0px"
	 viewBox="0 0 288.52 288.52" style="enable-background:new 0 0 288.52 288.52;" xml:space="preserve">
<g>
	<g>
		<rect x="207.925" y="194.745" width="46.931" height="17"/>
		<path d="M266.02,36.607H22.5c-12.406,0-22.5,10.094-22.5,22.5v170.307c0,12.406,10.094,22.5,22.5,22.5h243.52
			c12.406,0,22.5-10.094,22.5-22.5V59.107C288.52,46.701,278.426,36.607,266.02,36.607z M271.52,229.413c0,3.033-2.467,5.5-5.5,5.5
			H22.5c-3.033,0-5.5-2.467-5.5-5.5V59.107c0-3.033,2.467-5.5,5.5-5.5h243.52c3.033,0,5.5,2.467,5.5,5.5L271.52,229.413
			L271.52,229.413z"/>
		<path d="M182.38,68.068H38.76c-4.694,0-8.5,3.806-8.5,8.5v135.385c0,4.694,3.806,8.5,8.5,8.5h143.62c4.694,0,8.5-3.806,8.5-8.5
			V76.568C190.88,71.874,187.074,68.068,182.38,68.068z M173.88,203.452H47.26V85.068h126.62V203.452z"/>
		<rect x="236.39" y="72.54" width="17" height="20.822"/>
		<rect x="209.391" y="72.54" width="17" height="20.822"/>
		<rect x="236.39" y="104.54" width="17" height="20.822"/>
		<rect x="209.391" y="104.54" width="17" height="20.822"/>
	</g>
	<g>
	</g>
	<g>
	</g>
	<g>
	</g>
	<g>
	</g>
	<g>
	</g>
	<g>
	</g>
	<g>
	</g>
	<g>
	</g>
	<g>
	</g>
	<g>
	</g>
	<g>
	</g>
	<g>
	</g>
	<g>
	</g>
	<g>
	</g>
	<g>
	</g>
</g>
<g>
</g>
<g>
</g>
<g>
</g>
<g>
</g>
<g>
</g>
<g>
</g>
<g>
</g>
<g>
</g>
<g>
</g>
<g>
</g>
<g>
</g>
<g>
</g>
<g>
</g>
<g>
</g>
<g>
</g>
</svg>
