<?xml version="1.0" encoding="iso-8859-1"?>
<!-- Generator: Adobe Illustrator 19.0.0, SVG Export Plug-In . SVG Version: 6.00 Build 0)  -->
<svg version="1.1" id="Capa_1" xmlns="http://www.w3.org/2000/svg" xmlns:xlink="http://www.w3.org/1999/xlink" x="0px" y="0px"
	 viewBox="0 0 304.514 304.514" style="enable-background:new 0 0 304.514 304.514;" xml:space="preserve">
<g>
	<g>
		<path d="M287.068,144.503c-9.627-9.627-23.592-12.339-35.664-8.139v-6.251c0-0.11-0.002-0.22-0.006-0.329
			c0.004-0.109,0.006-0.219,0.006-0.329c0-4.694-3.806-8.5-8.5-8.5H15.875c-4.694,0-8.5,3.806-8.5,8.5v34.913
			c0,43.111,24.807,80.532,60.893,98.753H15.875c-3.096,0-5.947,1.684-7.442,4.395c-1.496,2.711-1.398,6.021,0.253,8.64
			l15.382,24.392c1.557,2.468,4.271,3.966,7.189,3.966h196.267c2.919,0,5.633-1.498,7.189-3.966l15.381-24.392
			c1.651-2.619,1.749-5.928,0.253-8.639c-1.495-2.711-4.347-4.395-7.442-4.395H190.84c25.96-13.139,46.041-36.258,55.172-64.28
			c5.187,2.888,10.956,4.33,16.721,4.33c8.841,0,17.665-3.372,24.336-10.042c6.494-6.494,10.07-15.129,10.07-24.313
			S293.562,150.998,287.068,144.503z M222.835,287.513H35.945l-4.661-7.392h196.211L222.835,287.513z M234.404,137.955v7.391H24.375
			v-7.391H234.404z M141.278,257.923h-23.349c-51.586,0-93.555-41.968-93.555-93.555v-2.022h210.029v2.451
			C234.404,216.147,192.627,257.923,141.278,257.923z M275.046,181.108c-6.442,6.444-16.858,6.802-23.71,0.817
			c-0.361-0.316-0.745-0.586-1.141-0.83c0.793-5.32,1.208-10.761,1.208-16.298v-9.123c6.821-5.897,17.168-5.626,23.643,0.85
			c3.284,3.284,5.092,7.649,5.092,12.292S278.331,177.825,275.046,181.108z"/>
		<path d="M79.191,74.345c1.926,0.977,3.151,1.632,3.56,2.297c1.362,3.354-2.703,8.35-5.275,11.053
			c-3.236,3.401-3.103,8.781,0.298,12.017c1.646,1.565,3.753,2.342,5.858,2.342c2.246,0,4.488-0.885,6.158-2.641
			c12.354-12.983,11.35-23.503,8.332-30.043l-0.115-0.239c-2.884-5.768-7.846-8.284-11.128-9.948
			c-1.345-0.681-2.868-1.454-3.271-1.992l-0.063-0.083c-3.181-4.134,1.763-9.514,3.354-11.063c3.362-3.276,3.433-8.658,0.156-12.02
			c-3.275-3.361-8.657-3.432-12.02-0.156c-10.686,10.412-12.644,23.58-4.996,33.563C72.816,71.113,76.499,72.981,79.191,74.345z"/>
		<path d="M121.075,58.622c4.156,2.107,6.595,3.433,7.878,5.895c2.715,6.082-0.394,13.878-9.243,23.178
			c-3.235,3.401-3.102,8.781,0.299,12.017c1.646,1.565,3.753,2.342,5.858,2.342c2.246,0,4.488-0.885,6.159-2.641
			c17.675-18.576,16.446-33.173,12.305-42.148l-0.115-0.239c-3.84-7.68-10.279-10.944-15.453-13.567
			c-2.999-1.52-5.588-2.833-6.927-4.618l-0.063-0.082c-7.558-9.826,2.525-20.985,5.796-24.171c3.362-3.276,3.433-8.657,0.156-12.02
			c-3.275-3.362-8.656-3.433-12.02-0.157c-15.035,14.648-17.952,32.963-7.437,46.674C111.982,54.012,117.023,56.567,121.075,58.622z
			"/>
		<path d="M169.889,66.214c3.11,1.577,4.938,2.561,5.791,4.152c1.918,4.375-0.546,10.205-7.325,17.329
			c-3.236,3.401-3.103,8.781,0.298,12.017c1.646,1.565,3.753,2.342,5.858,2.342c2.246,0,4.488-0.885,6.158-2.641
			c15.106-15.875,13.986-28.504,10.387-36.303l-0.115-0.239c-3.378-6.757-9.15-9.684-13.364-11.82
			c-2.294-1.163-4.275-2.167-5.162-3.35l-0.063-0.082c-5.443-7.077,2.157-15.445,4.616-17.841c3.362-3.276,3.433-8.658,0.156-12.02
			c-3.275-3.362-8.657-3.433-12.02-0.156c-12.934,12.602-15.387,28.431-6.259,40.341C162.108,62.269,166.421,64.456,169.889,66.214z
			"/>
	</g>
	<g>
	</g>
	<g>
	</g>
	<g>
	</g>
	<g>
	</g>
	<g>
	</g>
	<g>
	</g>
	<g>
	</g>
	<g>
	</g>
	<g>
	</g>
	<g>
	</g>
	<g>
	</g>
	<g>
	</g>
	<g>
	</g>
	<g>
	</g>
	<g>
	</g>
</g>
<g>
</g>
<g>
</g>
<g>
</g>
<g>
</g>
<g>
</g>
<g>
</g>
<g>
</g>
<g>
</g>
<g>
</g>
<g>
</g>
<g>
</g>
<g>
</g>
<g>
</g>
<g>
</g>
<g>
</g>
</svg>
