<?xml version="1.0" encoding="iso-8859-1"?>
<!-- Generator: Adobe Illustrator 19.0.0, SVG Export Plug-In . SVG Version: 6.00 Build 0)  -->
<svg version="1.1" id="Capa_1" xmlns="http://www.w3.org/2000/svg" xmlns:xlink="http://www.w3.org/1999/xlink" x="0px" y="0px"
	 viewBox="0 0 288.519 288.519" style="enable-background:new 0 0 288.519 288.519;" xml:space="preserve">
<g>
	<g>
		<path d="M266.019,64.587H198.56V17.125c0-4.694-3.806-8.5-8.5-8.5H98.456c-4.694,0-8.5,3.806-8.5,8.5v47.462H22.5
			C10.093,64.587,0,74.68,0,87.087v170.306c0,12.407,10.093,22.5,22.5,22.5h243.519c12.407,0,22.5-10.093,22.5-22.5V87.087
			C288.519,74.681,278.425,64.587,266.019,64.587z M181.56,25.625v5.979h-74.604v-5.979H181.56z M106.956,48.604h74.604v15.984
			h-74.604V48.604z M271.519,257.395c0,3.033-2.467,5.5-5.5,5.5H22.5c-3.033,0-5.5-2.467-5.5-5.5V87.087c0-3.033,2.467-5.5,5.5-5.5
			h243.519c3.033,0,5.5,2.467,5.5,5.5L271.519,257.395L271.519,257.395z"/>
		<path d="M218.262,109.353H70.257c-9.379,0-17.009,7.258-17.009,16.179v93.417c0,8.921,7.63,16.179,17.009,16.179h148.005
			c9.379,0,17.009-7.258,17.009-16.179v-93.417C235.271,116.61,227.641,109.353,218.262,109.353z M218.271,218.128
			c-0.003,0-0.006,0-0.009,0H70.257c-0.003,0-0.006,0-0.009,0v-91.776c0.003,0,0.006,0,0.009,0h148.005c0.003,0,0.006,0,0.009,0
			L218.271,218.128L218.271,218.128z"/>
		<polygon points="152.759,141.809 135.759,141.809 135.759,163.74 113.828,163.74 113.828,180.74 135.759,180.74 135.759,202.671 
			152.759,202.671 152.759,180.74 174.69,180.74 174.69,163.74 152.759,163.74 		"/>
	</g>
	<g>
	</g>
	<g>
	</g>
	<g>
	</g>
	<g>
	</g>
	<g>
	</g>
	<g>
	</g>
	<g>
	</g>
	<g>
	</g>
	<g>
	</g>
	<g>
	</g>
	<g>
	</g>
	<g>
	</g>
	<g>
	</g>
	<g>
	</g>
	<g>
	</g>
</g>
<g>
</g>
<g>
</g>
<g>
</g>
<g>
</g>
<g>
</g>
<g>
</g>
<g>
</g>
<g>
</g>
<g>
</g>
<g>
</g>
<g>
</g>
<g>
</g>
<g>
</g>
<g>
</g>
<g>
</g>
</svg>
