<?xml version="1.0" encoding="iso-8859-1"?>
<!-- Generator: Adobe Illustrator 19.0.0, SVG Export Plug-In . SVG Version: 6.00 Build 0)  -->
<svg version="1.1" id="Capa_1" xmlns="http://www.w3.org/2000/svg" xmlns:xlink="http://www.w3.org/1999/xlink" x="0px" y="0px"
	 viewBox="0 0 247.302 247.302" style="enable-background:new 0 0 247.302 247.302;" xml:space="preserve">
<g>
	<g>
		<path d="M123.651,0C55.47,0,0,55.47,0,123.651s55.47,123.651,123.651,123.651s123.651-55.47,123.651-123.651S191.833,0,123.651,0z
			 M230.277,121.625l-43.163-2.627c-1.63-22.423-14.914-41.654-33.82-51.648l14.853-40.611
			C204.22,43.366,229.488,79.553,230.277,121.625z M123.651,170.303C97.928,170.303,77,149.375,77,123.651S97.928,77,123.651,77
			c5.617,0,11.005,0.999,15.997,2.826c0.009,0.003,0.018,0.008,0.027,0.011c0.01,0.003,0.019,0.006,0.029,0.009
			c17.839,6.558,30.598,23.719,30.598,43.804C170.303,149.375,149.375,170.303,123.651,170.303z M123.651,17
			c9.881,0,19.449,1.356,28.536,3.883l-14.854,40.614c-4.41-0.97-8.984-1.497-13.682-1.497c-17.798,0-33.903,7.351-45.466,19.166
			L43.532,53.339C63.093,31.077,91.757,17,123.651,17z M33.357,66.958l34.654,25.827C62.915,101.934,60,112.457,60,123.651
			c0,8.449,1.669,16.512,4.672,23.896l-37.541,21.44C20.638,155.221,17,139.854,17,123.651C17,102.833,23.002,83.392,33.357,66.958z
			 M35.584,183.737l37.539-21.439c11.643,15.187,29.957,25.005,50.528,25.005c2.039,0,4.054-0.106,6.045-0.295l9.819,42.114
			c-5.177,0.775-10.474,1.181-15.864,1.181C87.113,230.303,54.812,211.83,35.584,183.737z M156.07,225.259l-9.82-42.116
			c20.25-7.719,35.575-25.483,39.846-47.177l43.155,2.627C223.495,179.469,194.485,212.975,156.07,225.259z"/>
	</g>
	<g>
	</g>
	<g>
	</g>
	<g>
	</g>
	<g>
	</g>
	<g>
	</g>
	<g>
	</g>
	<g>
	</g>
	<g>
	</g>
	<g>
	</g>
	<g>
	</g>
	<g>
	</g>
	<g>
	</g>
	<g>
	</g>
	<g>
	</g>
	<g>
	</g>
</g>
<g>
</g>
<g>
</g>
<g>
</g>
<g>
</g>
<g>
</g>
<g>
</g>
<g>
</g>
<g>
</g>
<g>
</g>
<g>
</g>
<g>
</g>
<g>
</g>
<g>
</g>
<g>
</g>
<g>
</g>
</svg>
